<?xml version="1.0" encoding="UTF-8"?>
<svg width="120" height="40" viewBox="0 0 120 40" fill="none" xmlns="http://www.w3.org/2000/svg">
    <!-- Background rectangle with rounded corners -->
    <rect x="2" y="2" width="116" height="36" rx="8" fill="#E0F2FE" stroke="#0EA5E9" stroke-width="2"/>
    
    <!-- S letter -->
    <path d="M35 10C35 8.34315 36.3431 7 38 7H42C43.6569 7 45 8.34315 45 10V12C45 13.6569 43.6569 15 42 15H38C36.3431 15 35 16.3431 35 18V30C35 31.6569 36.3431 33 38 33H42C43.6569 33 45 31.6569 45 30V28" stroke="#0EA5E9" stroke-width="3" stroke-linecap="round" stroke-linejoin="round"/>
    
    <!-- K letter -->
    <path d="M55 7V33M55 20H65L70 7M55 20H65L70 33" stroke="#0EA5E9" stroke-width="3" stroke-linecap="round" stroke-linejoin="round"/>
</svg> 